<?xml version="1.0" encoding="utf-8"?>
<!-- Generator: Adobe Illustrator 25.1.0, SVG Export Plug-In . SVG Version: 6.00 Build 0)  -->
<svg version="1.1" id="Layer_1" xmlns="http://www.w3.org/2000/svg" xmlns:xlink="http://www.w3.org/1999/xlink" x="0px" y="0px"
	 viewBox="0 0 2382 1000" style="enable-background:new 0 0 2382 1000;" xml:space="preserve">
<style type="text/css">
	.st0{fill:#E8A52E;}
	.st1{fill:#FFFFFF;}
	.st2{fill:#262626;}
	.st3{fill:none;}
</style>
<g>
	<g>
		<path class="st0" d="M333.08,159.85l-14.42,81.84h86.93v33.92h-92.86l-14.42,82.26h82.26v33.92h-88.2l-16.54,94.56h-35.19
			l16.54-94.56h-75.05l-16.54,94.56h-35.19l16.54-94.56H60.85v-33.92h92.02l14.42-82.26H85.87v-33.92h87.35l14.42-81.84h35.2
			l-14.42,81.84h75.05l14.42-81.84H333.08z M188.06,357.88h75.05l14.42-82.26h-75.05L188.06,357.88z"/>
	</g>
	<g>
		<path class="st0" d="M85.68,654.14l56.31-53.79c4.41-4.41,7.77-9.45,7.77-15.76c0-7.14-4.62-13.66-14.5-13.66
			c-9.45,0-13.66,6.3-13.66,15.97H85.68c0-27.53,18.07-49.8,51.69-49.8c31.94,0,48.75,22.27,48.75,46.64
			c0,16.39-6.72,31.1-18.91,42.02l-31.31,29.84v0.84h49.17v33.83H85.68V654.14z"/>
		<path class="st0" d="M243.06,615.27c0-43.49,35.51-78.16,78.79-78.16c43.49,0,78.58,34.67,78.58,78.16
			c0,43.28-35.09,78.16-78.58,78.16C278.57,693.43,243.06,658.55,243.06,615.27z M364.5,615.27c0-25.63-19.12-44.33-42.65-44.33
			c-23.32,0-42.65,18.7-42.65,44.33c0,25.63,19.33,44.33,42.65,44.33C345.38,659.6,364.5,640.9,364.5,615.27z"/>
		<path class="st0" d="M85.68,827.72l56.31-53.79c4.41-4.41,7.77-9.45,7.77-15.76c0-7.14-4.62-13.66-14.5-13.66
			c-9.45,0-13.66,6.3-13.66,15.97H85.68c0-27.53,18.07-49.8,51.69-49.8c31.94,0,48.75,22.27,48.75,46.64
			c0,16.39-6.72,31.1-18.91,42.02l-31.31,29.84v0.84h49.17v33.83H85.68V827.72z"/>
		<path class="st0" d="M318.12,747.66h-16.81v-33.83h52.53v150.02h-35.93L318.12,747.66z"/>
	</g>
	<g>
		<path class="st2" d="M458.51,483.71V144.14h159.64c62.4,0,102.96,17.68,133.12,48.36c29.64,30.68,45.76,73.32,45.76,121.16
			c0,49.4-17.16,94.12-48.88,125.32c-29.12,27.56-66.04,44.72-130,44.72H458.51z M615.55,419.75c39,0,55.12-8.84,72.8-24.44
			c19.76-19.76,31.2-46.8,31.2-81.12c0-32.24-9.88-59.28-28.6-78.52c-17.16-17.16-35.36-27.04-75.4-27.04h-82.68v211.12H615.55z"/>
		<path class="st2" d="M1091.35,454.07c-28.08,21.32-73.84,37.44-119.6,37.44c-85.8,0-132.6-61.36-132.6-132.6
			c0-76.96,56.16-137.28,134.68-137.28c61.88,0,127.4,37.44,127.4,131.04c0,4.16,0,9.36-1.04,21.32H907.27
			c5.72,35.88,30.68,61.88,73.32,61.88c27.56,0,57.72-10.92,78-26L1091.35,454.07z M908.83,327.71h122.2
			c-0.52-35.88-31.2-53.04-57.72-53.04C936.39,274.67,916.63,299.11,908.83,327.71z"/>
		<path class="st2" d="M1353.43,297.03c-28.08-13-64.48-22.88-91.52-22.88c-26,0-42.12,8.32-42.12,24.44
			c0,21.32,28.08,22.88,49.92,23.92c45.76,2.08,122.2,7.28,122.2,80.6c0,60.32-52.52,89.44-120.64,89.44
			c-58.76,0-102.44-21.84-128.96-38.48l24.44-49.4c24.44,15.08,65.52,34.32,105.56,34.32c32.24,0,50.44-11.96,50.44-29.64
			c0-23.92-31.2-26.52-53.56-28.08c-55.12-3.12-118.04-6.76-118.04-75.4c0-64.48,56.68-85.28,108.16-85.28
			c45.76,0,97.24,16.64,118.56,27.04L1353.43,297.03z"/>
		<path class="st2" d="M1484.46,115.02c23.4,0,41.6,17.68,41.6,37.96s-18.2,36.92-41.6,36.92s-41.08-16.64-41.08-36.92
			C1443.38,132.18,1461.06,115.02,1484.46,115.02z M1450.14,483.71V229.94h69.16v253.76H1450.14z"/>
		<path class="st2" d="M1772.53,455.11c-20.8,21.32-46.8,33.28-71.76,33.28c-67.6,0-123.24-52.52-123.24-131.04
			c0-82.68,55.12-135.72,123.24-135.72c33.8,0,63.96,23.4,78.52,40.04c0-9.36,1.56-23.4,3.64-32.76h64.48
			c-5.72,30.16-5.72,52-5.72,72.8v193.96c0,58.24-44.2,106.08-131.04,106.08c-58.24,0-95.16-18.2-120.64-41.08l36.4-40.04
			c19.76,14.56,45.76,26.52,84.24,26.52c40.56,0,61.88-21.84,61.88-48.88V455.11z M1772.53,402.07v-93.08
			c-9.36-9.36-31.2-28.6-61.88-28.6c-32.24,0-58.76,29.64-58.76,76.96c0,43.68,26.52,72.8,58.76,72.8
			C1731.97,430.15,1753.81,419.23,1772.53,402.07z"/>
		<path class="st2" d="M2059.57,221.62c51.48,0,92.56,38.48,92.56,91.52v170.56h-69.68V315.75c0-19.24-17.16-35.36-42.12-35.36
			c-24.96,0-43.68,16.64-58.24,32.76v170.56h-69.16V302.23c0-21.32-1.56-44.2-7.28-72.28h63.44c2.08,9.88,4.16,21.32,5.2,33.28
			C1993.53,240.34,2020.05,221.62,2059.57,221.62z"/>
	</g>
	<g>
		<path class="st2" d="M458.52,876.14V536.57h188.24c48.36,0,80.08,14.04,101.92,36.92c17.68,18.72,28.08,43.16,28.08,70.2
			c0,43.68-27.04,77.48-68.64,95.68l79.56,136.76H702.4l-68.64-124.8H532.88v124.8H458.52z M532.88,599.49v88.92h121.68
			c26,0,47.32-18.72,47.32-44.72c0-11.44-4.16-21.84-11.96-29.64c-11.96-13-27.04-14.56-40.56-14.56H532.88z"/>
		<path class="st2" d="M1060.16,846.5c-28.08,21.32-73.84,37.44-119.6,37.44c-85.8,0-132.6-61.36-132.6-132.6
			c0-76.96,56.16-137.28,134.68-137.28c61.88,0,127.4,37.44,127.4,131.04c0,4.16,0,9.36-1.04,21.32H876.08
			c5.72,35.88,30.68,61.88,73.32,61.88c27.56,0,57.72-10.92,78-26L1060.16,846.5z M877.64,720.13h122.2
			c-0.52-35.88-31.2-53.04-57.72-53.04C905.2,667.09,885.44,691.54,877.64,720.13z"/>
		<path class="st2" d="M1142.84,622.37v-40.04c0-57.2,43.16-75.92,82.16-75.92c17.16,0,44.2,4.16,53.56,8.84l-7.28,53.04
			c-9.36-3.12-27.56-5.72-35.36-5.72c-14.56,0-23.92,7.28-23.92,19.76v40.04h62.4v51.48H1212v202.28h-69.16V673.85h-43.68v-51.48
			H1142.84z"/>
		<path class="st2" d="M1392.43,712.86v163.28h-69.68v-182c0-21.32-2.08-43.68-7.28-71.76h63.44c2.08,10.92,4.16,24.96,5.2,37.96
			c15.6-26,33.8-46.28,66.56-46.28c13,0,30.16,3.64,39,10.4l-19.24,63.44c-7.8-3.12-24.96-7.28-34.32-7.28
			C1417.91,680.62,1406.47,694.66,1392.43,712.86z"/>
		<path class="st2" d="M1751.76,846.5c-28.08,21.32-73.84,37.44-119.6,37.44c-85.8,0-132.6-61.36-132.6-132.6
			c0-76.96,56.16-137.28,134.68-137.28c61.88,0,127.4,37.44,127.4,131.04c0,4.16,0,9.36-1.04,21.32h-192.92
			c5.72,35.88,30.68,61.88,73.32,61.88c27.56,0,57.72-10.92,78-26L1751.76,846.5z M1569.23,720.13h122.2
			c-0.52-35.88-31.2-53.04-57.72-53.04C1596.79,667.09,1577.03,691.54,1569.23,720.13z"/>
		<path class="st2" d="M2006.03,689.46c-28.08-13-64.48-22.88-91.52-22.88c-26,0-42.12,8.32-42.12,24.44
			c0,21.32,28.08,22.88,49.92,23.92c45.76,2.08,122.2,7.28,122.2,80.6c0,60.32-52.52,89.44-120.64,89.44
			c-58.76,0-102.44-21.84-128.96-38.48l24.44-49.4c24.44,15.08,65.52,34.32,105.56,34.32c32.24,0,50.44-11.96,50.44-29.64
			c0-23.92-31.2-26.52-53.56-28.08c-55.12-3.12-118.04-6.76-118.04-75.4c0-64.48,56.68-85.28,108.16-85.28
			c45.76,0,97.24,16.64,118.56,27.04L2006.03,689.46z"/>
		<path class="st2" d="M2081.95,876.14v-364h69.16v136.76c18.2-18.2,42.64-34.84,73.32-34.84c57.72,0,96.72,38.48,96.72,91.52
			v170.56h-69.68V708.17c0-19.24-17.68-35.36-42.64-35.36c-24.44,0-45.76,17.16-57.72,32.76v170.56H2081.95z"/>
	</g>
</g>
<rect x="1512.6" y="816.49" class="st3" width="9.39" height="0"/>
</svg>
